# xmcd
#
# Track frame offsets:
#	183
#	12520
#	24033
#	37970
#	51640
#	65055
#	78250
#	91015
#	106328
#	118373
#	131528
#	146745
#	161343
#	173223
#	186985
#	199778
#	213415
#	226150
#	239215
#	252155
#	266745
#	278578
#	292390
#	305438
#
# Disc length: 4248 seconds
#
# Revision: 5
# Processed by: cddbd v1.5.2PL0 Copyright (c) Steve Scherf et al.
# Submitted via: audiograbber 1.83.01
#
DISCID=65109618
DTITLE=Muddy Waters - Mannish Boy
DYEAR=1988
DGENRE=Blues
TTITLE0=I Can't Be Satisfied
TTITLE1=Gypsy Woman
TTITLE2=Screamin' And Cryin'
TTITLE3=Sad Letter Blues
TTITLE4=Rollin' And Tumblin'
TTITLE5=Walkin' Blues
TTITLE6=Louisiana Blues
TTITLE7=Honey Bee
TTITLE8=Long-distance Call
TTITLE9=She Moves Me
TTITLE10=They Call Me Muddy Waters
TTITLE11=Still A Fool
TTITLE12=My Life Is Ruined
TTITLE13=I Want You To Love Me
TTITLE14=Hoochie-Coochie Man
TTITLE15=I'm Ready
TTITLE16=I Just Want To Make Love To You
TTITLE17=Mannish Boy
TTITLE18=Forty Days And Forty Nights
TTITLE19=Just To Be With You
TTITLE20=Walking Thru The Park
TTITLE21=Lonesome Road Blues
TTITLE22=Southbound Train
TTITLE23=I Feel So Good
EXTD=SPA\n1988
EXTT0=
EXTT1=
EXTT2=
EXTT3=
EXTT4=
EXTT5=
EXTT6=
EXTT7=
EXTT8=
EXTT9=
EXTT10=
EXTT11=
EXTT12=
EXTT13=
EXTT14=
EXTT15=
EXTT16=
EXTT17=
EXTT18=
EXTT19=
EXTT20=
EXTT21=
EXTT22=
EXTT23=
PLAYORDER=
